<svg xmlns="http://www.w3.org/2000/svg" viewBox="0 0 70.83 17.36"><defs><style>.cls-1{fill:#ff7154;}</style></defs><g id="Layer_2" data-name="Layer 2"><g id="Layer_1-2" data-name="Layer 1"><path class="cls-1" d="M8.9,17.36h0A8.9,8.9,0,0,1,0,8.46V0H0A8.89,8.89,0,0,1,8.9,8.9Z"/><path class="cls-1" d="M9.68,10.16h0V5.67A5.67,5.67,0,0,1,15.35,0h0V4.49A5.67,5.67,0,0,1,9.68,10.16Z"/><path class="cls-1" d="M22.5,17.36H16A6.32,6.32,0,0,1,9.68,11h6.5a6.32,6.32,0,0,1,6.32,6.32Z"/><path class="cls-1" d="M29.31,15.68H37v1.41H27.63V.32h1.68Z"/><path class="cls-1" d="M45,2.6a8.31,8.31,0,0,1,2.55,6.11A8.32,8.32,0,0,1,45,14.82a8.7,8.7,0,0,1-12.29,0,8.3,8.3,0,0,1-2.56-6.11A8.28,8.28,0,0,1,32.75,2.6,8.7,8.7,0,0,1,45,2.6ZM34,3.66a6.9,6.9,0,0,0-2,5.05,6.88,6.88,0,0,0,2,5,6.92,6.92,0,0,0,9.86,0,6.9,6.9,0,0,0,2-5,6.91,6.91,0,0,0-2-5.06,6.92,6.92,0,0,0-9.86,0Z"/><path class="cls-1" d="M54.89.5a8,8,0,0,1,2.6,1.23l-.65,1.32A8.7,8.7,0,0,0,52,1.59a7.37,7.37,0,0,0-5.34,2,6.82,6.82,0,0,0-2.07,5.18,6.8,6.8,0,0,0,2,5.11,7.26,7.26,0,0,0,5.28,2,7.26,7.26,0,0,0,4.46-1.34V9.86H51.47V8.44h6.42v6.71a7.91,7.91,0,0,1-2.8,1.62,9.94,9.94,0,0,1-3.28.59A8.87,8.87,0,0,1,45.34,15a8.28,8.28,0,0,1-2.47-6.23,8.38,8.38,0,0,1,2.48-6.27A8.86,8.86,0,0,1,51.78.06,11.07,11.07,0,0,1,54.89.5Z"/><path class="cls-1" d="M68.28,2.6a8.31,8.31,0,0,1,2.55,6.11,8.32,8.32,0,0,1-2.55,6.11,8.7,8.7,0,0,1-12.29,0,8.32,8.32,0,0,1-2.55-6.11A8.31,8.31,0,0,1,56,2.6a8.7,8.7,0,0,1,12.29,0ZM57.21,3.66a6.9,6.9,0,0,0-2.05,5.05,6.88,6.88,0,0,0,2.05,5,6.92,6.92,0,0,0,9.86,0,6.9,6.9,0,0,0,2-5,6.91,6.91,0,0,0-2-5.06,6.92,6.92,0,0,0-9.86,0Z"/></g></g></svg>